{"title":"Adventure Time Season 1-6 x264 mp4","uid":12137198,"size":14055004534,"categoryP":"video","categoryS":"hd___tv_shows","magnet":"?xt=urn:btih:58d93cf484880afb143f112be54c3676c75fe898&amp;dn=Adventure+Time+Season+1-6+x264+mp4&amp;tr=udp%3A%2F%2Ftracker.openbittorrent.com%3A80&amp;tr=udp%3A%2F%2Fopen.demonii.com%3A1337&amp;tr=udp%3A%2F%2Ftracker.coppersurfer.tk%3A6969&amp;tr=udp%3A%2F%2Fexodus.desync.com%3A6969","seeders":1,"leechers":1,"uploader":"DeadShadow90","files":196,"time":1437233264,"description":"   This is a compliation I made that contains all the 6 seasons and episodes of the TV series Adventure Time\n\n\n   The episodes are recorded from Cartoon Network , Cartoon Network HD , and from web sources... They are all recoded to mp4 format and H264 compression\n\n\n\nSeason 1 to 5:\n\nMedia Info:\nFormat : MPEG-4\nFormat profile : Base Media / Version 2\nCodec ID : mp42\nFile size : 99.0 MiB\nDuration : 10mn 50s\nOverall bit rate mode : Variable\nOverall bit rate : 1 277 Kbps\n\nVideo:\nFormat : AVC\nFormat/Info : Advanced Video Codec\nFormat profile : &lt;a class=&quot;__cf_email__&quot; href=&quot;/cdn-cgi/l/email-protection&quot; data-cfemail=&quot;2068494748606c130e11&quot;&gt;[email&amp;#160;protected]&lt;/a&gt;&lt;script data-cfhash='f9e31' type=&quot;text/javascript&quot;&gt;\n/* &lt;![CDATA[ */!function(){try{var t=&quot;currentScript&quot;in document?document.currentScript:function(){for(var t=document.getElementsByTagName(&quot;script&quot;),e=t.length;e--;)if(t[e].getAttribute(&quot;data-cfhash&quot;))return t[e]}();if(t&amp;&amp;t.previousSibling){var e,r,n,i,c=t.previousSibling,a=c.getAttribute(&quot;data-cfemail&quot;);if(a){for(e=&quot;&quot;,r=parseInt(a.substr(0,2),16),n=2;a.length-n;n+=2)i=parseInt(a.substr(n,2),16)^r,e+=String.fromCharCode(i);e=document.createTextNode(e),c.parentNode.replaceChild(e,c)}t.parentNode.removeChild(t);}}catch(u){}}()/* ]]&gt; */&lt;/script&gt;\nFormat settings, CABAC : Yes\nFormat settings, ReFrames : 4 frames\nCodec ID : avc1\nCodec ID/Info : Advanced Video Coding\nDuration : 10mn 50s\nBit rate : 1 110 Kbps\nWidth : 1 280 pixels\nHeight : 720 pixels\nDisplay aspect ratio : 16:9\nFrame rate mode : Variable\nFrame rate : 29.970 fps\nMinimum frame rate : 29.412 fps\nMaximum frame rate : 30.303 fps\nColor space : YUV\nChroma subsampling : 4:2:0\nBit depth : 8 bits\nScan type : Progressive\nBits/(Pixel*Frame) : 0.040\nStream size : 86.1 MiB (87%)\nWriting library : x264 core 130 r2273 b3065e6\nColor range : Limited\nColor primaries : BT.709\nTransfer characteristics : BT.709\nMatrix coefficients : BT.709\n\nAudio:\nFormat : AAC\nFormat/Info : Advanced Audio Codec\nFormat profile : LC\nCodec ID : 40\nDuration : 10mn 50s\nBit rate mode : Variable\nBit rate : 160 Kbps\nMaximum bit rate : 217 Kbps\nChannel(s) : 2 channels\nChannel positions : Front: L R\nSampling rate : 48.0 KHz\nCompression mode : Lossy\nStream size : 12.4 MiB (13%)\nTitle : Stereo\nLanguage : English\n\n\n\n\nSeason 6:\n\nMedia Info:\nFormat : MPEG-4\nFormat profile : Base Media\nCodec ID : isom\nFile size : 46.0 MiB\nDuration : 11mn 12s\nOverall bit rate mode : Variable\nOverall bit rate : 574 Kbps\n\nVideo:\nFormat : AVC\nFormat/Info : Advanced Video Codec\nFormat profile : &lt;a class=&quot;__cf_email__&quot; href=&quot;/cdn-cgi/l/email-protection&quot; data-cfemail=&quot;561e3f313e161a657867&quot;&gt;[email&amp;#160;protected]&lt;/a&gt;&lt;script data-cfhash='f9e31' type=&quot;text/javascript&quot;&gt;\n/* &lt;![CDATA[ */!function(){try{var t=&quot;currentScript&quot;in document?document.currentScript:function(){for(var t=document.getElementsByTagName(&quot;script&quot;),e=t.length;e--;)if(t[e].getAttribute(&quot;data-cfhash&quot;))return t[e]}();if(t&amp;&amp;t.previousSibling){var e,r,n,i,c=t.previousSibling,a=c.getAttribute(&quot;data-cfemail&quot;);if(a){for(e=&quot;&quot;,r=parseInt(a.substr(0,2),16),n=2;a.length-n;n+=2)i=parseInt(a.substr(n,2),16)^r,e+=String.fromCharCode(i);e=document.createTextNode(e),c.parentNode.replaceChild(e,c)}t.parentNode.removeChild(t);}}catch(u){}}()/* ]]&gt; */&lt;/script&gt;\nFormat settings, CABAC : Yes\nFormat settings, ReFrames : 5 frames\nCodec ID : avc1\nCodec ID/Info : Advanced Video Coding\nDuration : 11mn 10s\nBit rate : 454 Kbps\nMaximum bit rate : 4 248 Kbps\nWidth : 720 pixels\nHeight : 404 pixels\nDisplay aspect ratio : 16:9\nFrame rate mode : Constant\nFrame rate : 23.976 fps\nColor space : YUV\nChroma subsampling : 4:2:0\nBit depth : 8 bits\nScan type : Progressive\nBits/(Pixel*Frame) : 0.065\nStream size : 36.3 MiB (79%)\nWriting library : x264 core 142 r2479 dd79a61\nColor range : Limited\nMatrix coefficients : BT.709\n\nAudio:\nFormat : AAC\nFormat/Info : Advanced Audio Codec\nFormat profile : LC\nCodec ID : 40\nDuration : 11mn 10s\nBit rate mode : Variable\nBit rate : 117 Kbps\nMaximum bit rate : 154 Kbps\nChannel(s) : 2 channels\nChannel positions : Front: L R\nSampling rate : 48.0 KHz\nCompression mode : Lossy\nStream size : 9.34 MiB (20%)\nLanguage : English\n\nENJOY and SEED","torrent":{"xt":"urn:btih:58d93cf484880afb143f112be54c3676c75fe898","amp;dn":"Adventure+Time+Season+1-6+x264+mp4","amp;tr":["udp%3A%2F%2Ftracker.openbittorrent.com%3A80","udp%3A%2F%2Fopen.demonii.com%3A1337","udp%3A%2F%2Ftracker.coppersurfer.tk%3A6969","udp%3A%2F%2Fexodus.desync.com%3A6969"],"infoHash":"58d93cf484880afb143f112be54c3676c75fe898","infoHashBuffer":{"type":"Buffer","data":[88,217,60,244,132,136,10,251,20,63,17,43,229,76,54,118,199,95,232,152]},"announce":[],"urlList":[]}}